# xmcd CD database file
#
# Track frame offsets:
#	150
#	15197
#	27320
#	40827
#	55855
#	70427
#	84050
#	100200
#	114595
#	134397
#	151577
#	160600
#	174575
#	186007
#
# Disc length: 2678 seconds
#
# Revision: 0
# Processed by: cddbd v1.5.2PL0 Copyright (c) Steve Scherf et al.
# Submitted via: CDex 1.51
#
DISCID=9f0a740e
DTITLE=Various Artist - Take The 'A' Train - The Big Band Album
DYEAR=1997
DGENRE=Blues
TTITLE0=Glenn Miller and His Orchestra - American Patrol
TTITLE1=Duke Ellington - Take The 'A' Train
TTITLE2=Harry James - One O'Clock Jump
TTITLE3=Tommy Dorsey - On The Sunny side Of The Street
TTITLE4=Artie Shaw - Begin the Beguine
TTITLE5=Count Basie - Honeysuckle Rose
TTITLE6=Glenn Miller and His Orchestra - In The Mood
TTITLE7=Woody Herman - At The Woodchoppers' Ball
TTITLE8=Jimmy Dorsey - I Got Rhythm
TTITLE9=Tommy Dorsey - Moonlight In Vermont
TTITLE10=Art tatum - Tiger Rag
TTITLE11=Jimmie Lunceford - 'Tain't What You Do
TTITLE12=Harry James - Ciribiribin
TTITLE13=Fletcher Henderson - Sugar Foot Stomp
EXTD=YEAR: 1997
EXTT0=
EXTT1=
EXTT2=
EXTT3=
EXTT4=
EXTT5=
EXTT6=
EXTT7=
EXTT8=
EXTT9=
EXTT10=
EXTT11=
EXTT12=
EXTT13=
PLAYORDER=
